<?xml version="1.0" encoding="UTF-8"?>
<svg enable-background="new 0 0 491.858 491.858" version="1.1" viewBox="0 0 491.86 491.86" xml:space="preserve" xmlns="http://www.w3.org/2000/svg">
			<path d="m245.93 1e-3c-135.82 0-245.93 110.1-245.93 245.93s110.11 245.93 245.93 245.93c54.538 0 104.92-17.764 145.7-47.806-2.169-0.146-4.286-1.097-5.853-2.847l-40.28-45.014-21.693 33.293-17.911-90.492 92.117 28.655-39.651 17.035 40.28 45.016c1.869 2.086 2.503 4.825 2.012 7.378 55.635-45.087 91.206-113.96 91.206-191.15 0-135.82-110.11-245.93-245.93-245.93z"/>
			<g enable-background="new" fill="#fff">
				<path d="m91.849 263.35 2.255 12.53 0.25 0.084 2.757-12.614 18.21-57.806h12.53l18.211 57.806 2.924 13.7h0.25l2.84-13.7 14.619-57.806h15.371l-26.23 90.385h-12.531l-17.876-55.718-3.926-16.123h-0.25l-3.759 16.123-17.542 55.718h-12.614l-26.23-90.385h15.454l15.287 57.806z"/>
				<path d="m221.33 263.35 2.255 12.53 0.25 0.084 2.757-12.614 18.21-57.806h12.531l18.211 57.806 2.922 13.7h0.252l2.84-13.7 14.619-57.806h15.369l-26.229 90.385h-12.531l-17.877-55.718-3.926-16.123h-0.25l-3.76 16.123-17.542 55.718h-12.614l-26.23-90.385h15.454l15.289 57.806z"/>
				<path d="m350.81 263.35 2.255 12.53 0.251 0.084 2.757-12.614 18.211-57.806h12.53l18.211 57.806 2.923 13.7h0.251l2.84-13.7 14.619-57.806h15.37l-26.229 90.385h-12.53l-17.877-55.718-3.926-16.123h-0.251l-3.759 16.123-17.543 55.718h-12.613l-26.23-90.385h15.454l15.286 57.806z"/>
			</g>
</svg>
